# xmcd CD database file
#
# Track frame offsets:
#	150
#	24056
#	37941
#	51563
#	63403
#	77422
#	88354
#	101954
#	115619
#	126658
#	140773
#	152705
#	166894
#	178991
#	189812
#	204023
#	216907
#	228951
#	243721
#	259879
#
# Disc length: 3649 seconds
#
# Revision: 0
# Processed by: cddbd v1.5.1PL0 Copyright (c) Steve Scherf et al.
# Submitted via: CDex 1.51
#
DISCID=1a0e3f14
DTITLE=Art Pepper - modern jazz archive 1
DYEAR=2004
DGENRE=Jazz
TTITLE0=Art Pepper
TTITLE1=Dynaflow
TTITLE2=Jump for Joe
TTITLE3=Sambo
TTITLE4=Street of Dreams
TTITLE5=All of Me
TTITLE6=Over the Rainbow
TTITLE7=Popo
TTITLE8=Didi
TTITLE9=Sam And The Lady
TTITLE10=Apropos
TTITLE11=The Count On Rush Street
TTITLE12=Pooch McGooch
TTITLE13=Brown Gold
TTITLE14=Holiday Flight
TTITLE15=Surf Ride
TTITLE16=These Foolish Things
TTITLE17=Short Stop
TTITLE18=Boar - Jibu
TTITLE19=Everything Happens To Me
EXTD=YEAR: 2004
EXTT0=
EXTT1=
EXTT2=
EXTT3=
EXTT4=
EXTT5=
EXTT6=
EXTT7=
EXTT8=
EXTT9=
EXTT10=
EXTT11=
EXTT12=
EXTT13=
EXTT14=
EXTT15=
EXTT16=
EXTT17=
EXTT18=
EXTT19=
PLAYORDER=
